# xmcd CD database file
#
# Track frame offsets:
#	150
#	40397
#	73050
#	89550
#	124050
#	148050
#	180000
#	214500
#	245757
#
# Disc length: 3702 seconds
#
# Revision: 0
# Processed by: cddbd v1.5.2PL0 Copyright (c) Steve Scherf et al.
# Submitted via: CDex 1.51
#
DISCID=820e7409
DTITLE=George Maurer - Dreams Once Lost
DYEAR=2003
DGENRE=Jazz
TTITLE0=When This Evening Is Over
TTITLE1=I Love the Dark Hours of My Being
TTITLE2=Liebeslied (Love Song)
TTITLE3=In the Softest Way
TTITLE4=All Blues
TTITLE5=Stuck At Dusk
TTITLE6=Prayer For Messiah
TTITLE7=Lamb of God
TTITLE8=I Think of Us
EXTD=YEAR: 2003
EXTT0=
EXTT1=
EXTT2=
EXTT3=
EXTT4=
EXTT5=
EXTT6=
EXTT7=
EXTT8=
PLAYORDER=
